<?xml version="1.0" encoding="UTF-8"?>
<svg id="Layer_1" data-name="Layer 1" xmlns="http://www.w3.org/2000/svg" viewBox="0 0 32 32">
  <defs>
    <style>
      .cls-1 {
        fill: #97d9ec;
      }

      .cls-2 {
        fill: #fff;
      }

      .cls-3 {
        fill: #ff9236;
      }

      .cls-4 {
        fill: #ffa159;
      }

      .cls-5 {
        fill: #b8ff77;
      }

      .cls-6 {
        fill: #ec3940;
      }

      .cls-7 {
        fill: #ec4034;
      }

      .cls-8 {
        fill: #ff7240;
      }

      .cls-9 {
        fill: #ffef7c;
      }

      .cls-10 {
        fill: #00a068;
      }

      .cls-11 {
        fill: #c23940;
      }

      .cls-12 {
        fill: #ffc736;
      }

      .cls-13 {
        fill: none;
      }

      .cls-14 {
        fill: #86a954;
      }

      .cls-15 {
        fill: #952e34;
      }

      .cls-16 {
        fill: #2d203e;
      }

      .cls-17 {
        fill: #59a9ec;
      }
    </style>
  </defs>
  <path class="cls-9" d="m20.29,10.46v-2.72s0-.09,0-.14c-.02,0-.04.01-.06.02-.03.01-.07.02-.11.03-.04.01-.08.02-.12.04-.04.01-.07.02-.11.03-.04.01-.09.02-.13.04-.04,0-.07.02-.11.03-.05.01-.1.02-.14.03-.04,0-.07.02-.11.02-.05.01-.1.02-.16.03-.04,0-.07.01-.11.02-.06.01-.11.02-.17.03-.04,0-.07.01-.11.02-.06.01-.12.02-.18.03-.04,0-.07.01-.11.02-.06,0-.12.02-.19.03-.04,0-.07.01-.11.01-.06,0-.13.02-.2.02-.04,0-.07,0-.11.01-.07,0-.14.01-.2.02-.04,0-.07,0-.11.01-.07,0-.14.01-.21.02-.04,0-.07,0-.11,0-.07,0-.14.01-.21.02-.04,0-.08,0-.11,0-.07,0-.15,0-.22.01-.04,0-.08,0-.11,0-.07,0-.15,0-.23,0-.04,0-.07,0-.11,0-.06,0-.13,0-.19,0-.02,0-.04,0-.06,0-.03,0-.06,0-.09,0-.02,0-.03,0-.05,0-.01,0-.02,0-.04,0-.09,0-.17,0-.26,0s-.17,0-.26,0c-.02,0-.03,0-.05,0-.01,0-.03,0-.04,0-.02,0-.04,0-.06,0-.03,0-.07,0-.1,0-.02,0-.05,0-.07,0-.04,0-.07,0-.11,0-.03,0-.06,0-.09,0-.08,0-.17,0-.25-.01-.03,0-.06,0-.09,0-.08,0-.17,0-.25-.01-.03,0-.05,0-.08,0-.08,0-.17-.01-.25-.02-.03,0-.05,0-.08,0-.08,0-.17-.01-.25-.02-.03,0-.05,0-.08,0-.08,0-.16-.02-.24-.03-.03,0-.06,0-.08-.01-.08,0-.15-.02-.23-.03-.03,0-.06,0-.09-.01-.07-.01-.14-.02-.21-.03-.03,0-.06-.01-.1-.02-.07-.01-.13-.02-.19-.03-.03,0-.07-.01-.1-.02-.06-.01-.12-.02-.18-.03-.04,0-.07-.01-.11-.02-.05-.01-.11-.02-.16-.03-.04,0-.08-.02-.12-.03-.05-.01-.09-.02-.14-.03-.04-.01-.08-.02-.12-.03-.04-.01-.08-.02-.13-.03-.04-.01-.08-.02-.12-.03-.04-.01-.08-.02-.11-.03-.04-.01-.08-.02-.11-.04-.02,0-.04-.01-.06-.02,0,.06,0,.11,0,.17v2.76c3.08.73,6.29.71,9.36-.05Z"/>
  <path class="cls-12" d="m18.41,18.1l.27-.11s.07,0,.1,0l.07.05c.49-.06.97-.13,1.45-.22v-7.38c-3.07.76-6.28.78-9.36.05v7.36c2.47.42,4.99.5,7.47.23Zm-1.48-6.15c.05-.32.2-.54.37-.54.22,0,.39.36.39.81s-.17.81-.39.81c-.17,0-.31-.23-.37-.54.24-.04.41-.14.41-.27s-.17-.23-.41-.27Zm-3.51,0c.05-.32.2-.54.37-.54.22,0,.39.36.39.81s-.17.81-.39.81c-.17,0-.31-.23-.37-.54.24-.04.41-.14.41-.27s-.17-.23-.41-.27Zm1.97,5.9c-.69-.03-1.34-.31-1.84-.78,0,0,0,0,0-.01-.5-.48-.84-1.13-.89-1.87,0-.03,0-.06.03-.08.02-.02.05-.03.08-.03h5.56s.06.01.08.03c.02.02.03.05.03.08-.05.73-.39,1.39-.89,1.87,0,0,0,0,0,.01-.5.47-1.16.75-1.85.78,0,0,0,0,0,0-.05,0-.09,0-.14,0s-.09,0-.14,0c0,0,0,0,0,0Z"/>
  <path class="cls-1" d="m20.4,7.34l.08-.03h0c.62-.24.96-.52.96-.79,0-.35-.58-.72-1.6-1l-.47,1.22c.46.17.82.37,1.02.59Z"/>
  <polygon class="cls-8" points="18.66 19.33 18.63 20.4 19.59 20.03 19.59 18.9 18.66 19.33"/>
  <polygon class="cls-4" points="18.45 19.31 17.73 18.73 17.68 19.86 18.42 20.36 18.45 19.31"/>
  <path class="cls-15" d="m15.53,16.37c.7,0,1.37.18,1.9.5.42-.41.7-.96.77-1.57h-.53c-.09.38-.43.65-.83.65h-2.57c-.4,0-.74-.28-.83-.65h-.58c.07.61.35,1.16.77,1.57.53-.32,1.2-.5,1.9-.5Z"/>
  <polygon class="cls-9" points="13.7 18.89 12.83 18.54 12.05 19.05 12.96 19.47 13.7 18.89"/>
  <polygon class="cls-8" points="13.08 19.65 13.11 20.69 13.85 20.19 13.8 19.07 13.08 19.65"/>
  <polygon class="cls-4" points="12.87 19.66 11.94 19.23 11.95 20.36 12.9 20.73 12.87 19.66"/>
  <path class="cls-2" d="m14.27,15.74h2.57c.28,0,.53-.18.61-.45h-3.79c.08.26.33.45.61.45Z"/>
  <path class="cls-6" d="m15.53,16.58c-.64,0-1.25.15-1.74.43.2.17.42.31.66.41,0,0,0,0,0,0,.07.03.13.06.2.08.04.02.09.03.14.04.03,0,.05.01.08.02.06.01.11.03.17.04.02,0,.03,0,.05,0,.07.01.13.02.2.03,0,0,.02,0,.02,0,.07,0,.15,0,.22,0s.15,0,.22,0c0,0,.02,0,.02,0,.07,0,.13-.02.2-.03.02,0,.03,0,.05,0,.06-.01.11-.02.17-.04.03,0,.05-.01.08-.02.05-.01.09-.03.14-.04.07-.02.14-.05.2-.08,0,0,0,0,0,0,.24-.11.46-.24.66-.41-.49-.28-1.1-.43-1.74-.43Z"/>
  <path class="cls-11" d="m15.14,16.6c-.5.05-.96.19-1.34.41.2.17.42.31.66.41,0,0,0,0,0,0,.03.02.07.03.11.04.14-.37.37-.66.58-.87Z"/>
  <path class="cls-2" d="m16.93,16.85c-.19.16-.4.29-.63.39,0,0,0,0,0,0-.07.03-.13.06-.2.08-.04.02-.09.03-.14.04-.03,0-.05.01-.08.02-.06.01-.11.03-.17.04-.02,0-.03,0-.05,0-.07.01-.13.02-.2.03,0,0-.02,0-.02,0-.07,0-.15,0-.22,0s-.15,0-.22,0c0,0-.02,0-.02,0-.07,0-.13-.02-.2-.03-.02,0-.03,0-.05,0-.06-.01-.11-.02-.17-.04-.03,0-.05-.01-.08-.02-.05-.01-.09-.03-.14-.04-.07-.02-.14-.05-.2-.08,0,0,0,0,0,0-.04-.02-.07-.03-.11-.05.13.09.27.17.42.24,0,0,0,0,0,0,.07.03.13.06.2.08.04.02.09.03.14.04.03,0,.05.01.08.02.06.01.11.03.17.04.02,0,.03,0,.05,0,.07.01.13.02.2.03,0,0,.02,0,.02,0,.07,0,.15,0,.22,0s.15,0,.22,0c0,0,.02,0,.02,0,.07,0,.13-.02.2-.03.02,0,.03,0,.05,0,.06-.01.11-.02.17-.04.03,0,.05-.01.08-.02.05-.01.09-.03.14-.04.07-.02.14-.05.2-.08,0,0,0,0,0,0,.24-.11.46-.24.66-.41-.11-.06-.22-.12-.34-.17Z"/>
  <path class="cls-9" d="m19.01,7.7s.03,0,.05,0c.05,0,.09-.02.13-.03.04,0,.09-.02.13-.03.04,0,.08-.02.12-.03.04-.01.09-.02.13-.03.04,0,.08-.02.11-.03.04-.01.09-.02.13-.04.03,0,.07-.02.1-.03.04-.01.09-.03.13-.04.03,0,.06-.02.09-.03,0,0,.02,0,.02,0-.19-.18-.49-.34-.88-.48l-.29.76Z"/>
  <path class="cls-2" d="m19.3,6.94l-.1.27c.24.1.45.2.61.31,0,0,.02,0,.03,0,.03,0,.07-.02.1-.03.04-.01.09-.03.13-.04.03,0,.06-.02.09-.03,0,0,.02,0,.02,0-.19-.18-.49-.34-.88-.48Z"/>
  <polygon class="cls-9" points="18.57 19.14 19.48 18.72 18.7 18.21 17.84 18.55 18.57 19.14"/>
  <path class="cls-1" d="m26.68,10.5c0-1.62-1.32-2.93-2.93-2.93-.81,0-1.56.32-2.12.91l-.18.19v-1.69s0,0,0,0c0,0,0,0,0,0-.02.02-.05.05-.07.07-.01,0-.02.02-.03.03-.02.02-.04.03-.06.05-.01,0-.03.02-.04.03-.02.02-.05.03-.07.05-.01,0-.03.02-.04.03-.03.02-.05.03-.08.05-.01,0-.03.02-.04.02-.03.02-.07.04-.11.06,0,0-.02,0-.03.01-.05.02-.09.04-.14.07-.02,0-.03.01-.05.02-.04.01-.07.03-.11.04,0,0-.01,0-.02,0h0s-.04.02-.04.02c0,.08,0,.15,0,.21v11.77c0,2.73-2.22,3.11-4.62,3.11h-.54c-2.4,0-4.62-.38-4.62-3.11V7.74c0-.07,0-.15,0-.24h-.03s0-.02,0-.02c-.02,0-.05-.02-.07-.03-.02,0-.03-.01-.05-.02-.05-.02-.1-.04-.14-.07,0,0-.02,0-.02-.01-.04-.02-.07-.04-.11-.06-.01,0-.03-.02-.04-.02-.03-.02-.05-.03-.08-.05-.02,0-.03-.02-.04-.03-.02-.02-.05-.03-.07-.05-.01,0-.03-.02-.04-.03-.02-.02-.04-.03-.06-.05-.04.03-.08.05-.12.08v14.79c0,1.04,2.1,1.94,4.9,2.1h.1v5.33c0,.55.26.66.72.66s.72-.11.72-.66v-5.32h.1c2.84-.14,5.07-1.07,5.07-2.12v-9.62l.18.19c.56.59,1.31.91,2.12.91,1.62,0,2.93-1.32,2.93-2.93Zm-4.82,0c0-1.04.85-1.89,1.89-1.89s1.89.85,1.89,1.89-.85,1.89-1.89,1.89-1.89-.85-1.89-1.89Z"/>
  <path class="cls-17" d="m10.91,20.71c-.12-.34-.19-.74-.19-1.2V7.74c0-.07,0-.15,0-.24h-.03s0-.02,0-.02c-.02,0-.05-.02-.07-.03-.02,0-.03-.01-.05-.02-.05-.02-.1-.04-.14-.07,0,0-.02,0-.02-.01-.04-.02-.07-.04-.11-.06-.01,0-.03-.02-.04-.02-.03-.02-.05-.03-.08-.05-.02,0-.03-.02-.04-.03-.02-.02-.05-.03-.07-.05-.01,0-.03-.02-.04-.03-.02-.02-.04-.03-.06-.05-.04.03-.08.05-.12.08v14.79c0,1.04,2.1,1.94,4.9,2.1h.1v.12l1.43-.11h0s.1,0,.1,0c-2.07-.15-5.05-.37-5.47-3.35Z"/>
  <path class="cls-9" d="m11.06,7.4s.01,0,.02,0c.02,0,.05.02.08.02.05.02.09.03.14.04.03,0,.06.02.1.03.05.01.09.03.14.04.04,0,.08.02.11.03.04.01.09.02.13.03.04.01.09.02.13.03.04,0,.08.02.13.03.05,0,.1.02.15.03.04,0,.08.02.12.02.05,0,.11.02.16.03.04,0,.08.01.12.02.06,0,.11.02.17.03.04,0,.08.01.12.02.06,0,.12.02.18.02.04,0,.08.01.12.02.06,0,.12.01.18.02.04,0,.08,0,.12.01.06,0,.12.01.19.02.04,0,.09,0,.13.01.06,0,.12.01.19.02.05,0,.09,0,.14.01.06,0,.12,0,.18.01.05,0,.1,0,.15,0,.06,0,.12,0,.18,0,.06,0,.11,0,.17,0,.05,0,.11,0,.16,0,.07,0,.14,0,.21,0,.04,0,.09,0,.13,0,.11,0,.23,0,.34,0s.22,0,.34,0c.04,0,.08,0,.12,0,.07,0,.14,0,.21,0,.05,0,.1,0,.15,0,.06,0,.12,0,.18,0,.05,0,.11,0,.16,0,.05,0,.11,0,.16,0,.06,0,.11,0,.17-.01.05,0,.1,0,.15-.01.06,0,.11,0,.17-.01.05,0,.1,0,.15-.01,0,0,0,0,0,0,0-.03.01-.06.02-.08l.45-1.19c-.73-.13-1.58-.21-2.47-.21-2.05,0-3.9.41-4.55.98Z"/>
  <path class="cls-2" d="m11.16,7.43s.09.03.14.04c.03,0,.06.02.1.03,0,0,.02,0,.02,0,.84-.45,2.44-.74,4.19-.74.84,0,1.64.07,2.34.19l.12-.33c-.73-.13-1.58-.21-2.47-.21-2.05,0-3.9.41-4.55.98,0,0,.01,0,.02,0,.02,0,.05.02.08.02Z"/>
  <path class="cls-1" d="m10.14,6.96c.15.11.35.22.6.33h0s.1.04.1.04c.63-.66,2.56-1.11,4.77-1.11.92,0,1.79.08,2.54.22l.44-1.16c-.84-.13-1.84-.21-2.95-.21-1.81,0-3.31.21-4.33.51-.29.54-.69,1.02-1.18,1.4Z"/>
  <path class="cls-17" d="m10.74,7.28l.1.04s.08-.08.13-.12c.44-.93,2.31-1.67,3.78-2.13-1.42.06-2.6.24-3.45.49-.29.54-.69,1.02-1.18,1.4.15.11.35.22.6.33h0Z"/>
  <path class="cls-1" d="m15.56,30.26c-.46,0-.93-.1-.93-.87v-.81c-2.18.14-3.81.72-3.81,1.37s1.92,1.4,4.78,1.4,4.78-.72,4.78-1.4-1.71-1.25-3.91-1.37v.81c0,.77-.47.87-.93.87Z"/>
  <path class="cls-5" d="m11.45,4.67c.32-1.08.2-2.23-.33-3.22-.05-.1-.11-.2-.18-.3,0,0,0,.02,0,.03.01.03.02.06.03.09.01.04.02.07.03.11,0,.03.02.06.03.09,0,.04.02.07.03.11,0,.03.01.06.02.09,0,.04.02.07.02.11,0,.03.01.06.02.09,0,.04.01.07.02.11,0,.03,0,.06.01.09,0,.04,0,.08.01.11,0,.03,0,.06,0,.08,0,0,0,.02,0,.03,0,.03,0,.06,0,.1,0,.03,0,.06,0,.08,0,.04,0,.09,0,.13,0,.02,0,.05,0,.07,0,.07,0,.13-.01.2,0,.02,0,.03,0,.05,0,.05-.01.11-.02.16,0,.03,0,.05-.01.08,0,.04-.01.08-.02.13,0,.03-.01.06-.02.08,0,.04-.02.08-.02.12,0,.03-.01.06-.02.09,0,.04-.02.08-.03.11,0,.03-.02.06-.03.09-.01.04-.02.07-.03.11,0,.03-.02.06-.03.09-.01.04-.03.07-.04.11-.01.03-.02.06-.03.09-.01.03-.02.05-.03.08,0,.01,0,.03,0,.04,0,.03-.03.06-.06.08-.02.03-.03.07-.05.1-.01.03-.03.05-.04.08-.02.04-.04.08-.06.12-.01.02-.02.05-.04.07-.03.05-.05.09-.08.14,0,.01-.02.03-.02.04-.04.06-.08.12-.12.18-.01.02-.02.03-.03.05-.03.04-.06.08-.09.12-.02.02-.03.04-.05.06-.03.03-.06.07-.08.1-.02.02-.04.04-.06.07-.03.03-.06.06-.08.1-.02.02-.04.05-.06.07-.03.03-.06.06-.09.09-.02.02-.04.04-.07.07-.03.03-.06.06-.09.09-.02.02-.05.04-.07.06-.03.03-.06.06-.1.08-.02.02-.05.04-.07.06-.03.03-.07.05-.1.08-.02.02-.05.04-.07.06-.04.03-.07.05-.11.08-.02.02-.05.03-.07.05-.04.03-.09.05-.13.08-.02.01-.04.03-.06.04-.07.04-.13.08-.2.11-.11.06-.23.12-.34.17-.63.28-1.32.43-2,.43h0c-.08,0-.17,0-.25,0-.03,0-.05,0-.08,0-.06,0-.12,0-.17-.02-.03,0-.06,0-.09-.01-.06,0-.11-.02-.17-.02-.03,0-.06,0-.08-.01-.06-.01-.12-.02-.19-.04-.02,0-.03,0-.05,0,.65.39,1.41.6,2.17.6h0c.7,0,1.39-.18,2.01-.51.99-.54,1.72-1.43,2.04-2.51Z"/>
  <path class="cls-12" d="m10.64,4.16c.23-.55.35-1.13.34-1.72l-3.23,1.3,2.9.42Z"/>
  <path class="cls-12" d="m7.36,4.06l-.88,2.94c.71-.03,1.43-.22,2.07-.57.03-.02.05-.03.08-.05l-1.27-2.32Z"/>
  <path class="cls-12" d="m10.55,4.36l-3.02-.44,1.29,2.35c.78-.49,1.37-1.16,1.73-1.92Z"/>
  <path class="cls-12" d="m7.71,3.53l3.25-1.31c-.04-.52-.19-1.04-.45-1.52-.03-.05-.06-.11-.1-.16l-2.71,2.99Z"/>
  <path class="cls-5" d="m25.5,2.19c-.05-.1-.14-.17-.24-.21-.02,0-2.08-.68-2.99-.96-.19-.06-.38-.09-.56-.09-1.05,0-1.63.94-1.81,1.5l-2.07,5.44c.33-.03.64-.08.95-.13l1.91-5.02s0-.02,0-.02c.03-.09.31-.93,1.02-.93.1,0,.2.02.31.05.91.28,2.96.95,2.98.96.04.01.09.02.13.02h0c.18,0,.34-.12.4-.29.03-.11.03-.22-.02-.32Z"/>
  <path class="cls-2" d="m20.03,2.59c.17-.55.78-1.43,1.8-1.43.18,0,.36.03.55.09.89.27,2.9.94,2.92.94.1.03.19.11.24.2,0,0,0,.01,0,.02,0-.08,0-.16-.04-.23-.05-.1-.14-.17-.24-.21-.02,0-2.08-.68-2.99-.96-.19-.06-.38-.09-.56-.09-1.05,0-1.63.94-1.81,1.5l-2.07,5.44c.1-.01.09.09.19.08l2.02-5.36Z"/>
  <g>
    <path class="cls-10" d="m22.42,1.49c-.05-.02-.06-.02,0,0h0Z"/>
    <path class="cls-10" d="m20.2,2.91s-.03.09-.05.13l-1.81,4.78c.15-.02.29-.04.43-.07l1.77-4.65c-.11-.07-.23-.13-.34-.19Z"/>
    <path class="cls-10" d="m22.42,1.49s-.08-.02-.12-.03c0,.15,0,.3,0,.45.99.31,2.68.86,2.7.87.04.01.09.02.13.02h0c.18,0,.34-.11.4-.28-.61-.25-2.78-.92-3.1-1.02Z"/>
    <path class="cls-10" d="m21.75,1.37c-.2,0-.38.02-.55.1.09.11.17.22.25.34.08-.02.16-.04.26-.04.01,0,.02,0,.03,0,0-.13.01-.27,0-.4Z"/>
    <path class="cls-10" d="m20.77,1.84c-.11.14-.23.32-.34.54.02,0,.04.02.06.03.09.05.17.09.26.14.05-.11.13-.27.25-.41-.07-.1-.15-.2-.22-.3Z"/>
    <polygon class="cls-10" points="22.42 1.49 22.42 1.49 22.42 1.49 22.42 1.49"/>
  </g>
  <path class="cls-2" d="m14.08,12.18c0,.47-.21.85-.48.85s-.48-.38-.48-.85.21-.85.48-.85.48.38.48.85Z"/>
  <path class="cls-2" d="m13.37,12.61c-.31,0-.57-.17-.57-.38s.26-.38.57-.38.57.17.57.38-.26.38-.57.38Z"/>
  <path class="cls-7" d="m12.5,14.55c-.31,0-.57-.17-.57-.38s.26-.38.57-.38.57.17.57.38-.26.38-.57.38Z"/>
  <path class="cls-7" d="m18.5,14.55c-.31,0-.57-.17-.57-.38s.25-.38.57-.38.57.17.57.38-.25.38-.57.38Z"/>
  <path class="cls-2" d="m17.56,12.18c0,.47-.21.85-.48.85s-.48-.38-.48-.85.22-.85.48-.85.48.38.48.85Z"/>
  <path class="cls-2" d="m16.85,12.61c-.31,0-.57-.17-.57-.38s.26-.38.57-.38.57.17.57.38-.26.38-.57.38Z"/>
  <path class="cls-13" d="m14.01,18.84s0,0,0,0c0,0,0,0,0,0,0,0,0,0,0-.01,0,0,0,0,0-.01,0,0,0,0,0-.01,0,0,0,0-.01-.01,0,0,0,0,0,0,0,0,0,0-.01,0,0,0,0,0,0,0,0,0,0,0,0,0,0,0,0,0,0,0l-1.08-.43s-.07,0-.1,0l-.99.64s0,0,0,0c0,0-.01,0-.02.01,0,0,0,0,0,0,0,0,0,0,0,.01,0,0,0,0,0,.01,0,0,0,0,0,.01,0,0,0,0,0,.01,0,0,0,0,0,.01v1.37s.04.08.08.1l1.17.45s0,0,0,0h0s.02,0,.04,0c0,0,0,0,0,0h0s0,0,0,0c.01,0,.02,0,.03,0,0,0,0,0,.01,0,0,0,0,0,.01,0l.94-.65s.05-.05.05-.09l-.05-1.39s0,0,0,0Z"/>
  <path class="cls-13" d="m17.59,18.42s0,0,0,0c0,0,0,0,0,0,0,0,0,0,0,0,0,0,0,0-.01,0,0,0,0,0,0,0,0,0,0,0-.01.01,0,0,0,0,0,.01,0,0,0,0,0,.01,0,0,0,0,0,.01,0,0,0,0,0,0,0,0,0,0,0,0,0,0,0,0,0,0l-.05,1.39s.02.07.05.09l.94.65s0,0,.01,0c0,0,0,0,.01,0,0,0,.02,0,.03,0,0,0,0,0,0,0h0s0,0,0,0c.01,0,.02,0,.04,0h0s0,0,0,0l1.17-.45s.07-.05.07-.1v-1.37s0,0,0-.01c0,0,0,0,0-.01,0,0,0,0,0-.01,0,0,0,0,0-.01,0,0,0,0,0-.01,0,0,0,0,0,0,0,0,0,0-.02-.01,0,0,0,0,0,0l-.91-.59c-.14.02-.29.03-.44.05l-.81.32Z"/>
  <path class="cls-7" d="m18.67,18l-.27.11c.15-.02.29-.03.44-.05l-.07-.05s-.06-.02-.1,0Z"/>
  <path class="cls-3" d="m18.84,18.05l.91.59s0,0,0,0c0,0,.01,0,.02.01,0,0,0,0,0,0,0,0,0,0,0,.01,0,0,0,0,0,.01,0,0,0,0,0,.01,0,0,0,0,0,.01,0,0,0,0,0,.01v1.37s-.04.08-.08.1l-1.17.45s0,0,0,0h0s-.02,0-.04,0c0,0,0,0,0,0h0s0,0,0,0c-.01,0-.02,0-.03,0,0,0,0,0-.01,0,0,0,0,0-.01,0l-.94-.65s-.05-.05-.05-.09l.05-1.39s0,0,0,0c0,0,0,0,0,0,0,0,0,0,0,0,0,0,0,0,0-.01,0,0,0,0,0-.01,0,0,0,0,0-.01,0,0,0,0,.01-.01,0,0,0,0,0,0,0,0,0,0,.01,0,0,0,0,0,0,0,0,0,0,0,0,0,0,0,0,0,0,0l.81-.32c-2.49.26-5,.19-7.47-.23v1.64c0,2.41,1.76,2.9,4.41,2.9h.54c2.65,0,4.41-.49,4.41-2.9v-1.67c-.48.09-.97.16-1.45.22Zm-4.83,2.28l-.94.65s0,0-.01,0c0,0,0,0-.01,0,0,0-.02,0-.03,0,0,0,0,0,0,0h0s0,0,0,0c-.01,0-.02,0-.04,0h0s0,0,0,0l-1.17-.45s-.07-.05-.07-.1v-1.37s0,0,0-.01c0,0,0,0,0-.01,0,0,0,0,0-.01,0,0,0,0,0-.01,0,0,0,0,0-.01,0,0,0,0,0,0,0,0,0,0,.02-.01,0,0,0,0,0,0l.99-.64s.06-.02.1,0l1.08.43s0,0,0,0c0,0,0,0,0,0,0,0,0,0,0,0,0,0,0,0,.01,0,0,0,0,0,0,0,0,0,0,0,.01.01,0,0,0,0,0,.01,0,0,0,0,0,.01,0,0,0,0,0,.01,0,0,0,0,0,0,0,0,0,0,0,0,0,0,0,0,0,0l.05,1.39s-.02.07-.05.09Z"/>
  <g>
    <polygon class="cls-14" points="17.21 9.46 18.15 9.34 18.25 9.08 17.31 9.2 17.21 9.46"/>
    <path class="cls-14" d="m18.38,8.75l.3-.77s-.07.01-.1.02c-.06,0-.12.02-.19.03-.04,0-.07.01-.11.01-.06,0-.13.02-.2.02-.04,0-.07,0-.11.01-.07,0-.14.01-.2.02-.01,0-.02,0-.03,0l-.29.77.94-.12Z"/>
    <path class="cls-14" d="m17.08,9.8l-.13.33c.33-.03.64-.08.95-.13l.12-.32-.94.12Z"/>
  </g>
  <path class="cls-2" d="m16.49,17.22c0,.12-.22.22-.5.22s-.5-.1-.5-.22.22-.22.5-.22.5.1.5.22Z"/>
  <path class="cls-2" d="m19.94,19.88s-.14,2.29-3.63,2.29c-2.72,0-3.98-.21-3.98-.21.76.35,1.79.45,3.01.45h.54c2.65,0,4.41-.49,4.41-2.9v-1.67c-.12.02-.24.04-.36.06v1.98Z"/>
  <path class="cls-2" d="m19.94,17.89c.12-.02.24-.04.36-.06v-7.38c-.13.03-.26.06-.38.09l.03,7.35Z"/>
  <path class="cls-2" d="m20.29,10.46v-2.72s0-.09,0-.14c-.02,0-.04.01-.06.02-.03.01-.07.02-.11.03-.04.01-.08.02-.12.04-.04.01-.07.02-.11.03v2.83c.14-.03.27-.06.4-.09Z"/>
  <path class="cls-2" d="m20.12,10.5c0,.5-.2.91-.45.91s-.45-.41-.45-.91.2-.91.45-.91.45.41.45.91Z"/>
  <path class="cls-12" d="m12.61,9.02c0,.16-.13.3-.3.3s-.3-.13-.3-.3.13-.3.3-.3.3.13.3.3Z"/>
  <path class="cls-12" d="m14.04,9.71c0,.22-.18.4-.4.4s-.4-.18-.4-.4.18-.4.4-.4.4.18.4.4Z"/>
  <path class="cls-12" d="m15.72,19.98c0,.24-.2.44-.44.44s-.44-.2-.44-.44.2-.44.44-.44.44.2.44.44Z"/>
  <path class="cls-2" d="m16.64,19.4c0,.13-.1.23-.23.23s-.23-.1-.23-.23.1-.23.23-.23.23.1.23.23Z"/>
  <path class="cls-12" d="m16.94,20.77c0,.21-.17.38-.38.38s-.38-.17-.38-.38.17-.38.38-.38.38.17.38.38Z"/>
  <path class="cls-2" d="m23.75,7.57c-.81,0-1.56.32-2.12.91l-.18.19v-1.69s0,0,0,0c0,0,0,0,0,0-.02.02-.05.05-.07.07-.01,0-.02.02-.03.03-.02.02-.04.03-.06.05-.01,0-.03.02-.04.03-.02.02-.05.03-.07.05-.01,0-.03.02-.04.03-.03.02-.05.03-.08.05-.01,0-.03.02-.04.02-.03.02-.07.04-.11.06,0,0-.02,0-.03.01,0,0,0,0,0,0,0,.22,0,1,.02,2.08h.54c.4-.92,1.32-1.57,2.39-1.57,1.44,0,2.6,1.16,2.6,2.6s-1.16,2.6-2.6,2.6c-1.08,0-2.01-.66-2.4-1.61h-.51c.03,3.73.08,8.35.08,9.34,0,1.26-.95,2.85-5.4,2.85-4.91,0-5.72-1.72-5.72-1.72,0,1.04,2.1,1.94,4.9,2.1h.1v.17h.96s.07,4.52.1,5.13c.02.4-.15.6-.28.7.41-.01.65-.14.65-.66v-5.32h.1c2.84-.14,5.07-1.07,5.07-2.12v-9.62l.18.19c.56.59,1.31.91,2.12.91,1.62,0,2.93-1.32,2.93-2.93s-1.32-2.93-2.93-2.93Z"/>
  <path class="cls-2" d="m20.89,11.48s-.02-.38.23-.37c.25,0,.28.37.28.37,0,0-.07.19-.12.24-.05.04-.15.13-.15.13l-.24-.37Z"/>
  <path class="cls-2" d="m20.87,9.45s-.05.44.21.44.33-.44.33-.44l-.13-.18s-.17-.02-.23-.02-.15.2-.18.2Z"/>
  <path class="cls-2" d="m20.98,21.53c.19.16.15.53-.09.84-.25.31-.6.43-.8.27-.19-.16-.15-.53.09-.84.25-.31.6-.43.8-.27Z"/>
  <path class="cls-2" d="m19.84,5.52l-.17.44c.84.25,1.4.58,1.53.95.15-.13.23-.26.23-.39,0-.35-.58-.72-1.6-1Z"/>
  <g>
    <path class="cls-2" d="m15.69,5.47c1,0,1.94.08,2.75.21l.16-.42c-.84-.13-1.84-.21-2.95-.21-1.81,0-3.31.21-4.33.51-.14.27-.32.53-.51.76.94-.5,2.77-.85,4.89-.85Z"/>
    <path class="cls-2" d="m10.16,6.94s-.02.01-.02.02c0,0,.01,0,.02.01,0-.01,0-.02,0-.03Z"/>
  </g>
  <path class="cls-2" d="m15.75,25.21c-.19,0-.34-.26-.34-.59s.15-.59.34-.59.34.26.34.59-.15.59-.34.59Z"/>
  <path class="cls-12" d="m11.79,9.4l-1,.9c0,.09,0,.19,0,.28l1.14-1.03c.1-.09-.04-.25-.14-.16Z"/>
  <path class="cls-12" d="m11.79,10.01l-1,.9c0,.1,0,.19,0,.29l1.14-1.03c.1-.09-.04-.25-.14-.16Z"/>
  <path class="cls-3" d="m11.79,16.84l-.95.85c0,.1,0,.19,0,.28l1.09-.98c.1-.09-.04-.25-.14-.16Z"/>
  <path class="cls-3" d="m11.79,17.44l-.96.87s0,.04,0,.06c0,.08-.01.16-.02.24l1.12-1.01c.1-.09-.04-.25-.14-.16Z"/>
  <path class="cls-2" d="m20,15.68l-1.22,1.1c-.1.09.04.25.14.16l1.22-1.1c.1-.09-.04-.25-.14-.16Z"/>
  <path class="cls-2" d="m20,16.42l-1.22,1.1c-.1.09.04.25.14.16l1.22-1.1c.1-.09-.04-.25-.14-.16Z"/>
  <g>
    <path class="cls-17" d="m12.28,28.96c.96.39,2.18.91,2.53,1.05-.11-.13-.18-.33-.18-.62v-.81c-.91.06-1.72.19-2.35.37Z"/>
    <path class="cls-17" d="m16.49,28.58v.81c0,.08,0,.15-.02.22l.77-.97c-.24-.03-.5-.05-.76-.06Z"/>
  </g>
  <path class="cls-3" d="m6.51,6.91l-.03.1c.71-.03,1.43-.22,2.07-.57.03-.02.05-.03.08-.05l-.22-.4c-.53.46-1.18.79-1.9.92Z"/>
  <path class="cls-3" d="m9.58,4.22c-.2.62-.55,1.17-1.01,1.61l.24.44c.78-.49,1.37-1.16,1.73-1.92l-.96-.14Z"/>
  <path class="cls-3" d="m9.78,2.93s0,.03,0,.05c0,.36-.05.71-.14,1.05l.99.14c.23-.55.35-1.13.34-1.72l-1.19.48Z"/>
  <path class="cls-3" d="m9.77,2.7l1.19-.48c-.04-.52-.19-1.04-.45-1.52-.03-.05-.06-.11-.1-.16l-.9,1c.14.37.23.76.26,1.17Z"/>
  <path class="cls-2" d="m10.42.54l-4.97,6.07s.79.51,1.38.51c0,0-1.62.16-2.13-.35L10.36.48l.06.06Z"/>
  <path class="cls-2" d="m8.07,4.49c-.25.32-.63.46-.83.3-.2-.16-.16-.55.09-.88.25-.32.63-.46.83-.3.2.16.16.55-.09.88Z"/>
  <path class="cls-3" d="m7.21,5.3s-.33.69-.04.72c.29.03.04-.72.04-.72Z"/>
  <path class="cls-3" d="m7.7,5.34s.04.76.31.66c.27-.11-.31-.66-.31-.66Z"/>
  <path class="cls-3" d="m8.21,4.67s.35.68.55.47c.2-.21-.55-.47-.55-.47Z"/>
  <path class="cls-3" d="m8.59,4.31s.48.44.58.21c.1-.23-.58-.21-.58-.21Z"/>
  <path class="cls-3" d="m8.87,3.57s.61.24.62-.01c.01-.25-.62.01-.62.01Z"/>
  <path class="cls-3" d="m8.93,2.7s.65-.09.54-.31c-.11-.22-.54.31-.54.31Z"/>
  <path class="cls-10" d="m10.94,1.16s0,.02,0,.03c.01.03.02.06.03.09,0,0,1.36,3.68-1.83,6.04.09-.04.17-.08.26-.13.99-.54,1.72-1.43,2.04-2.51.32-1.08.2-2.23-.33-3.22-.05-.1-.11-.2-.18-.3Z"/>
  <path class="cls-2" d="m12.09,11.91c0,.17-.14.31-.31.31s-.31-.14-.31-.31.14-.31.31-.31.31.14.31.31Z"/>
  <path class="cls-2" d="m19.47,12.46c0,.16-.13.29-.29.29s-.29-.13-.29-.29.13-.29.29-.29.29.13.29.29Z"/>
  <path class="cls-2" d="m16.01,9.74c0,.13-.11.24-.24.24s-.24-.11-.24-.24.11-.24.24-.24.24.11.24.24Z"/>
  <path class="cls-2" d="m14.86,21.13c0,.14-.12.26-.26.26s-.26-.12-.26-.26.12-.26.26-.26.26.12.26.26Z"/>
  <path class="cls-2" d="m18.32,28.81c.55.22.89.49.89.78,0,.71-1.91,1.28-4.27,1.28-1.96,0-3.61-.4-4.11-.94,0,0,0,0,0,.01,0,.67,1.92,1.4,4.78,1.4s4.78-.72,4.78-1.4c0-.45-.83-.88-2.07-1.14Z"/>
  <polygon class="cls-2" points="12.58 18.64 13.64 19.1 13.68 20.12 13 20.56 11.89 20.24 11.85 20.39 13 20.83 13.97 20.24 13.91 18.85 12.79 18.43 12.58 18.64"/>
  <path class="cls-2" d="m18.5,18.26l.86.65.05,1-.89.28-.93-.52-.05.22s.93.6.98.62c.05.01,1.2-.37,1.18-.41-.03-.04-.01-1.38-.01-1.38l-1.03-.63-.16.17Z"/>
  <path class="cls-2" d="m13.02,19.67c0,.07-.02.14-.04.2l.94-.66v-.29s-.92.65-.92.65c.01.03.02.06.02.1Z"/>
  <polygon class="cls-2" points="18.58 19.3 18.55 19.56 19.72 19.04 19.7 18.79 18.58 19.3"/>
  <path class="cls-16" d="m25.63,10.5c0-1.04-.85-1.89-1.89-1.89s-1.89.85-1.89,1.89.85,1.89,1.89,1.89,1.89-.85,1.89-1.89Zm-3.56,0c0-.92.75-1.68,1.68-1.68s1.68.75,1.68,1.68-.75,1.68-1.68,1.68-1.68-.75-1.68-1.68Z"/>
  <path class="cls-16" d="m26.89,10.5c0-1.73-1.41-3.14-3.14-3.14-.78,0-1.52.28-2.1.8v-1.64c0-.5-.69-.9-1.74-1.19l.96-2.53s0-.02.01-.04c.02-.08.26-.78.82-.78.08,0,.16.01.25.04.91.28,2.95.95,2.97.96.06.02.13.03.2.03h0c.27,0,.51-.17.6-.43.05-.16.04-.33-.04-.48-.08-.15-.21-.26-.36-.31-.02,0-2.09-.68-3-.96-.21-.06-.42-.1-.62-.1-1.02,0-1.74.83-2,1.64l-1.03,2.7c-.93-.15-1.98-.23-3.02-.23-1.52,0-3.07.17-4.21.47.09-.19.16-.38.22-.58.34-1.14.21-2.34-.35-3.38-.21-.39-.48-.75-.8-1.06,0,0,0,0-.01,0,0,0,0,0-.01,0-.01,0-.02,0-.03-.01,0,0,0,0,0,0,0,0,0,0,0,0-.01,0-.03,0-.04,0,0,0,0,0-.01,0,0,0-.01,0-.02.01,0,0,0,0,0,0,0,0,0,0,0,0l-5.81,6.42s0,0,0,.01c0,0,0,0,0,0,0,0,0,0,0,0,0,0,0,.02-.01.03,0,0,0,0,0,0,0,0,0,.02,0,.03,0,0,0,0,0,0,0,0,0,0,0,0,0,0,0,0,0,0,0,.01,0,.02.02.03,0,0,0,0,0,.01,0,0,0,0,0,0,.8.67,1.81,1.03,2.85,1.03h0c.73,0,1.46-.18,2.1-.53.04-.02.09-.05.13-.07v14.66c0,1.15,2.09,2.12,4.99,2.31v4.11c-2.37.15-4.02.79-4.02,1.58,0,.9,2.19,1.61,4.99,1.61s4.99-.71,4.99-1.61c0-.8-1.69-1.45-4.12-1.58v-4.1c3-.16,5.17-1.13,5.17-2.32v-9.11c.58.52,1.31.8,2.1.8,1.73,0,3.14-1.41,3.14-3.14Zm-5.45-3.98c0,.27-.34.55-.96.79h0s-.08.03-.08.03c-.2-.22-.56-.43-1.02-.59l.47-1.22c1.02.28,1.6.65,1.6,1Zm-1.15,1.08s0,.1,0,.14v11.77c0,2.41-1.76,2.9-4.41,2.9h-.54c-2.65,0-4.41-.49-4.41-2.9V7.74c0-.05,0-.11,0-.17.02,0,.04.01.06.02.04.01.08.03.11.04.04.01.07.02.11.03.04.01.08.02.12.03.04.01.08.02.13.03.04.01.08.02.12.03.05.01.09.02.14.03.04,0,.08.02.12.03.05.01.1.02.16.03.04,0,.07.02.11.02.06.01.12.02.18.03.03,0,.07.01.1.02.06.01.13.02.19.03.03,0,.06.01.1.02.07.01.14.02.21.03.03,0,.06,0,.09.01.08.01.15.02.23.03.03,0,.06,0,.08.01.08,0,.16.02.24.03.03,0,.05,0,.08,0,.08,0,.16.02.25.02.03,0,.05,0,.08,0,.08,0,.17.01.25.02.03,0,.05,0,.08,0,.08,0,.17,0,.25.01.03,0,.06,0,.09,0,.08,0,.17,0,.25.01.03,0,.06,0,.09,0,.04,0,.07,0,.11,0,.02,0,.05,0,.07,0,.03,0,.07,0,.1,0,.02,0,.04,0,.06,0,.01,0,.03,0,.04,0,.02,0,.03,0,.05,0,.09,0,.17,0,.26,0s.17,0,.26,0c.01,0,.02,0,.04,0,.02,0,.03,0,.05,0,.03,0,.06,0,.09,0,.02,0,.04,0,.06,0,.06,0,.13,0,.19,0,.04,0,.07,0,.11,0,.08,0,.15,0,.23,0,.04,0,.08,0,.11,0,.07,0,.15,0,.22-.01.04,0,.08,0,.11,0,.07,0,.14,0,.21-.02.04,0,.07,0,.11,0,.07,0,.14-.01.21-.02.04,0,.07,0,.11-.01.07,0,.14-.01.2-.02.04,0,.07,0,.11-.01.07,0,.13-.02.2-.02.04,0,.07,0,.11-.01.06,0,.13-.02.19-.03.04,0,.07-.01.11-.02.06,0,.12-.02.18-.03.04,0,.07-.01.11-.02.06-.01.11-.02.17-.03.04,0,.07-.01.11-.02.05-.01.1-.02.16-.03.04,0,.07-.02.11-.02.05-.01.1-.02.14-.03.04,0,.07-.02.11-.03.05-.01.09-.02.13-.04.04-.01.07-.02.11-.03.04-.01.08-.02.12-.04.04-.01.07-.02.11-.03.02,0,.04-.01.06-.02Zm1.98-6.58c.91.28,2.97.96,2.99.96.11.03.19.11.24.21.05.1.06.21.02.32-.06.17-.22.29-.4.29h0s-.09,0-.13-.02c-.02,0-2.06-.68-2.98-.96-.11-.03-.21-.05-.31-.05-.71,0-.99.83-1.02.93,0,0,0,.02,0,.02l-1.91,5.02c-.3.05-.62.09-.95.13l2.07-5.44c.18-.56.76-1.5,1.81-1.5.18,0,.37.03.56.09Zm-2.11,6.4s-.06.02-.09.03c-.04.01-.09.03-.13.04-.03,0-.07.02-.1.03-.04.01-.09.02-.13.04-.04,0-.07.02-.11.03-.04.01-.09.02-.13.03-.04,0-.08.02-.12.03-.04,0-.09.02-.13.03-.04,0-.09.02-.13.03-.02,0-.03,0-.05,0l.29-.76c.39.14.69.3.88.48,0,0-.02,0-.02,0Zm-2.53.39s-.02.05-.02.08c0,0,0,0,0,0-.05,0-.1,0-.15.01-.06,0-.11,0-.17.01-.05,0-.1,0-.15.01-.06,0-.11,0-.17.01-.05,0-.11,0-.16,0-.05,0-.11,0-.16,0-.06,0-.12,0-.18,0-.05,0-.1,0-.15,0-.07,0-.14,0-.21,0-.04,0-.08,0-.12,0-.11,0-.22,0-.34,0s-.23,0-.34,0c-.04,0-.09,0-.13,0-.07,0-.14,0-.21,0-.05,0-.11,0-.16,0-.06,0-.11,0-.17,0-.06,0-.12,0-.18,0-.05,0-.1,0-.15,0-.06,0-.12,0-.18-.01-.05,0-.09,0-.14-.01-.06,0-.13-.01-.19-.02-.04,0-.09,0-.13-.01-.06,0-.13-.01-.19-.02-.04,0-.08,0-.12-.01-.06,0-.12-.01-.18-.02-.04,0-.08-.01-.12-.02-.06,0-.12-.02-.18-.02-.04,0-.08-.01-.12-.02-.06,0-.11-.02-.17-.03-.04,0-.08-.01-.12-.02-.05,0-.11-.02-.16-.03-.04,0-.08-.02-.12-.02-.05,0-.1-.02-.15-.03-.04,0-.08-.02-.13-.03-.04,0-.09-.02-.13-.03-.04-.01-.09-.02-.13-.03-.04,0-.08-.02-.11-.03-.05-.01-.09-.02-.14-.04-.03,0-.07-.02-.1-.03-.05-.01-.1-.03-.14-.04-.03,0-.05-.02-.08-.02,0,0-.01,0-.02,0,.65-.58,2.5-.98,4.55-.98.89,0,1.74.08,2.47.21l-.45,1.19Zm-1.98-2.76c1.11,0,2.11.08,2.95.21l-.44,1.16c-.75-.14-1.62-.22-2.54-.22-2.21,0-4.14.46-4.77,1.11l-.1-.04h0c-.25-.1-.46-.21-.6-.33.49-.38.89-.85,1.18-1.4,1.02-.3,2.52-.51,4.33-.51Zm-8.54-.85l-.85,2.81c-.51,0-.99-.09-1.46-.26l2.3-2.55Zm3.41-3.5c.26.48.41,1,.45,1.52l-3.25,1.31,2.71-2.99c.04.06.07.11.1.16Zm.12,3.46l-2.9-.42,3.23-1.3c.01.58-.1,1.17-.34,1.72Zm-1.82,2.11l-1.29-2.35,3.02.44c-.36.76-.95,1.43-1.73,1.92Zm-2.33.72l.88-2.94,1.27,2.32s-.05.03-.08.05c-.64.35-1.36.54-2.07.57Zm.93.69c-.77,0-1.52-.21-2.17-.6.02,0,.03,0,.05,0,.06.01.12.03.19.04.03,0,.06,0,.08.01.05,0,.11.02.17.02.03,0,.06,0,.09.01.06,0,.12.01.17.02.03,0,.05,0,.08,0,.08,0,.17,0,.25,0h0c.68,0,1.36-.15,2-.43.12-.05.23-.11.34-.17.07-.04.13-.07.2-.11.02-.01.04-.03.06-.04.04-.03.09-.05.13-.08.02-.02.05-.03.07-.05.04-.03.08-.05.11-.08.03-.02.05-.04.07-.06.03-.03.07-.05.1-.08.02-.02.05-.04.07-.06.03-.03.06-.05.1-.08.02-.02.05-.04.07-.06.03-.03.06-.06.09-.09.02-.02.05-.04.07-.07.03-.03.06-.06.09-.09.02-.02.04-.04.06-.07.03-.03.06-.06.08-.1.02-.02.04-.04.06-.07.03-.03.06-.07.08-.1.02-.02.03-.04.05-.06.03-.04.06-.08.09-.12.01-.02.02-.03.03-.05.04-.06.08-.12.12-.18,0-.01.02-.03.02-.04.03-.05.06-.09.08-.14.01-.02.02-.05.04-.07.02-.04.04-.08.06-.12.01-.03.03-.05.04-.08.02-.03.03-.07.05-.1.03-.02.05-.04.06-.08,0-.01,0-.03,0-.04.01-.03.02-.05.03-.08.01-.03.02-.06.03-.09.01-.04.03-.07.04-.11.01-.03.02-.06.03-.09.01-.04.02-.07.03-.11,0-.03.02-.06.03-.09.01-.04.02-.08.03-.11,0-.03.01-.06.02-.09,0-.04.02-.08.02-.12,0-.03.01-.06.02-.08,0-.04.01-.08.02-.13,0-.03,0-.05.01-.08,0-.05.01-.11.02-.16,0-.02,0-.03,0-.05,0-.07,0-.13.01-.2,0-.02,0-.05,0-.07,0-.04,0-.09,0-.13,0-.03,0-.06,0-.08,0-.03,0-.06,0-.1,0,0,0-.02,0-.03,0-.03,0-.06,0-.08,0-.04,0-.08-.01-.11,0-.03,0-.06-.01-.09,0-.04-.01-.07-.02-.11,0-.03-.01-.06-.02-.09,0-.04-.01-.07-.02-.11,0-.03-.01-.06-.02-.09,0-.04-.02-.07-.03-.11,0-.03-.02-.06-.03-.09-.01-.04-.02-.07-.03-.11,0-.03-.02-.06-.03-.09,0,0,0-.02,0-.03.06.1.12.2.18.3.54.99.66,2.14.33,3.22-.32,1.08-1.05,1.97-2.04,2.51-.62.33-1.31.51-2.01.51h0Zm12.99,22.26c0,.67-1.92,1.4-4.78,1.4s-4.78-.72-4.78-1.4,1.63-1.23,3.81-1.37v.81c0,.77.47.87.93.87s.93-.1.93-.87v-.81c2.2.12,3.91.72,3.91,1.37Zm1.23-17.43l-.18-.19v9.62c0,1.05-2.23,1.98-5.07,2.11h-.1v5.33c0,.55-.26.66-.72.66s-.72-.11-.72-.66v-5.33h-.1c-2.79-.17-4.9-1.07-4.9-2.11V7.16s.08-.05.12-.08c.02.02.04.03.06.05.01,0,.03.02.04.03.02.02.05.03.07.05.01,0,.03.02.04.03.03.02.05.03.08.05.01,0,.03.02.04.02.04.02.07.04.11.06,0,0,.02,0,.02.01.05.02.09.04.14.07.01,0,.03.01.05.02.02,0,.04.02.07.03h0s.03.02.03.02c0,.09,0,.17,0,.24v11.77c0,2.73,2.22,3.11,4.62,3.11h.54c2.4,0,4.62-.38,4.62-3.11V7.74c0-.07,0-.14,0-.21l.04-.02h0s.01,0,.02-.01c.04-.01.07-.03.11-.04.02,0,.03-.01.05-.02.05-.02.1-.04.14-.07,0,0,.02,0,.03-.01.04-.02.07-.04.11-.06.02,0,.03-.02.04-.02.03-.02.05-.03.08-.05.02,0,.03-.02.04-.03.02-.02.05-.03.07-.05.01,0,.03-.02.04-.03.02-.02.04-.03.06-.05.01,0,.02-.02.03-.03.03-.02.05-.05.07-.07,0,0,0,0,0,0,0,0,0,0,0,0v1.69l.18-.19c.56-.59,1.31-.91,2.12-.91,1.62,0,2.93,1.32,2.93,2.93s-1.32,2.93-2.93,2.93c-.81,0-1.56-.32-2.12-.91Z"/>
  <path class="cls-16" d="m14.01,18.84s0,0,0,0c0,0,0,0,0,0,0,0,0,0,0-.01,0,0,0,0,0-.01,0,0,0,0,0-.01,0,0,0,0-.01-.01,0,0,0,0,0,0,0,0,0,0-.01,0,0,0,0,0,0,0,0,0,0,0,0,0,0,0,0,0,0,0l-1.08-.43s-.07,0-.1,0l-.99.64s0,0,0,0c0,0-.01,0-.02.01,0,0,0,0,0,0,0,0,0,0,0,.01,0,0,0,0,0,.01,0,0,0,0,0,.01,0,0,0,0,0,.01,0,0,0,0,0,.01v1.37s.04.08.08.1l1.17.45s0,0,0,0h0s.02,0,.04,0c0,0,0,0,0,0h0s0,0,0,0c.01,0,.02,0,.03,0,0,0,0,0,.01,0,0,0,0,0,.01,0l.94-.65s.05-.05.05-.09l-.05-1.39s0,0,0,0Zm-1.17-.3l.86.34-.73.59-.91-.43.78-.51Zm-.89.68l.93.44.03,1.07-.96-.37v-1.13Zm1.17,1.46l-.03-1.05.72-.58.04,1.12-.74.5Z"/>
  <path class="cls-16" d="m19.8,18.71s0,0,0-.01c0,0,0,0,0-.01,0,0,0,0,0-.01,0,0,0,0,0,0,0,0,0,0-.02-.01,0,0,0,0,0,0l-.99-.64s-.06-.02-.1,0l-1.08.43s0,0,0,0c0,0,0,0,0,0,0,0,0,0,0,0,0,0,0,0-.01,0,0,0,0,0,0,0,0,0,0,0-.01.01,0,0,0,0,0,.01,0,0,0,0,0,.01,0,0,0,0,0,.01,0,0,0,0,0,0,0,0,0,0,0,0,0,0,0,0,0,0l-.05,1.39s.02.07.05.09l.94.65s0,0,.01,0c0,0,0,0,.01,0,0,0,.02,0,.03,0,0,0,0,0,0,0h0s0,0,0,0c.01,0,.02,0,.04,0h0s0,0,0,0l1.17-.45s.07-.05.07-.1v-1.37s0,0,0-.01c0,0,0,0,0-.01Zm-1.1-.5l.78.51-.91.42-.73-.59.86-.34Zm-.97.52l.72.58-.03,1.05-.74-.5.04-1.12Zm.9,1.67l.03-1.07.93-.44v1.13s-.96.37-.96.37Z"/>
  <path class="cls-16" d="m17.52,17.07s0,0,0-.01c.5-.48.84-1.13.89-1.87,0-.03,0-.06-.03-.08-.02-.02-.05-.03-.08-.03h-5.56s-.06.01-.08.03c-.02.02-.03.05-.03.08.05.73.39,1.39.89,1.87,0,0,0,0,0,.01.5.47,1.16.75,1.84.78,0,0,0,0,0,0,.05,0,.09,0,.14,0s.09,0,.14,0c0,0,0,0,0,0,.69-.03,1.34-.31,1.85-.78Zm-.91.35c-.07.03-.13.06-.2.08-.04.02-.09.03-.14.04-.03,0-.05.01-.08.02-.06.01-.11.03-.17.04-.02,0-.03,0-.05,0-.07.01-.13.02-.2.03,0,0-.02,0-.02,0-.07,0-.15,0-.22,0s-.15,0-.22,0c0,0-.02,0-.02,0-.07,0-.13-.02-.2-.03-.02,0-.03,0-.05,0-.06-.01-.11-.02-.17-.04-.03,0-.05-.01-.08-.02-.05-.01-.09-.03-.14-.04-.07-.02-.14-.05-.2-.08,0,0,0,0,0,0-.24-.11-.46-.24-.66-.41.49-.28,1.1-.43,1.74-.43s1.25.15,1.74.43c-.2.17-.42.31-.66.41,0,0,0,0,0,0Zm.84-2.13c-.08.26-.33.45-.61.45h-2.57c-.28,0-.53-.18-.61-.45h3.79Zm-4.59,0h.58c.09.38.43.65.83.65h2.57c.4,0,.74-.28.83-.65h.53c-.07.61-.35,1.16-.77,1.57-.53-.32-1.2-.5-1.9-.5s-1.37.18-1.9.5c-.42-.41-.7-.96-.77-1.57Z"/>
  <path class="cls-16" d="m13.42,12.5c.05.32.2.54.37.54.22,0,.39-.36.39-.81s-.17-.81-.39-.81c-.17,0-.31.23-.37.54.24.04.41.14.41.27s-.17.23-.41.27Z"/>
  <path class="cls-16" d="m16.93,12.5c.05.32.2.54.37.54.22,0,.39-.36.39-.81s-.17-.81-.39-.81c-.17,0-.31.23-.37.54.24.04.41.14.41.27s-.17.23-.41.27Z"/>
</svg>